<svg id="Layer_1" data-name="Layer 1" xmlns="http://www.w3.org/2000/svg" viewBox="0 0 52.08 52.08"><defs><style>.cls-1{fill:#231f20;stroke:#231f20;stroke-width:0.5px;}.cls-1,.cls-2{stroke-miterlimit:10;}.cls-2{fill:none;stroke:#000;stroke-width:2px;}</style></defs><title>logo</title><path class="cls-1" d="M34.8,23.48c-.24,0-.5-.05-.77-.06,0-2.36-.06-9.79-.11-13.26a2.82,2.82,0,0,0-.77-1.93,2.58,2.58,0,0,0-1.86-.8,2.49,2.49,0,0,0-1.79.69,2.78,2.78,0,0,0-.86,2l-.07,7.63a2.77,2.77,0,0,0-1.45-.41,2.64,2.64,0,0,0-2.43,1.5,3,3,0,0,0-1.62-.5,2.87,2.87,0,0,0-1.41.36l-.05-4.64a2.49,2.49,0,0,0-5-.05c0,.53,0,1.27-.07,2.15C16.21,27,16.31,34.47,18,35.92c1.4,1.21,1.45,3.43,1.39,4.44H17.74a.63.63,0,0,0-.63.63v8.36a.63.63,0,1,0,1.26,0V41.62H33.58v7.73a.63.63,0,1,0,1.25,0V41a.62.62,0,0,0-.62-.62H32.65V38.15a19.07,19.07,0,0,1,2.65-2.51A8.17,8.17,0,0,0,37.79,32c1.16-3.4,1.09-4.42.93-4.9A4.89,4.89,0,0,0,34.8,23.48ZM30.37,9a1.22,1.22,0,0,1,.85-.34h.06a1.33,1.33,0,0,1,1,.42,1.49,1.49,0,0,1,.41,1.06c.06,4.61.13,11.36.11,13.26a29.94,29.94,0,0,0-3,.29l.12-13.57A1.58,1.58,0,0,1,30.37,9Zm-3.25,9.58a1.32,1.32,0,0,1,1.39,1.22v4.61A2.15,2.15,0,0,1,28,25.81a1.09,1.09,0,0,1-.79.27c-.06,0-1.6-.31-1.53-1.7v0l.07-4.54A1.32,1.32,0,0,1,27.12,18.61Zm-4.05,1c.75,0,1.39.48,1.39,1.05l0,3.57v.11a2.29,2.29,0,0,1-.52,1.46,1,1,0,0,1-.76.27c-.06,0-1.6-.28-1.52-1.48v0l.06-3.94A1.28,1.28,0,0,1,23.07,19.61Zm13.53,12a7,7,0,0,1-2.1,3c-3.11,2.58-3.11,3.11-3.11,3.36v2.33H20.66c.07-1.26,0-3.86-1.83-5.4-1.59-1.36-1.14-14.45-1-18.75,0-.89.06-1.63.07-2.17a1.24,1.24,0,0,1,2.45,0l.07,6.54-.07,3.92c-.1,1.85,1.64,2.62,2.64,2.79h.17a2.3,2.3,0,0,0,1.6-.61,2.51,2.51,0,0,0,.35-.44,3.63,3.63,0,0,0,1.93,1h.17a2.11,2.11,0,0,0,2.1,1.25,10.42,10.42,0,0,1,1.67.19,3.68,3.68,0,0,0-1.06,1,.62.62,0,0,0,.17.87.63.63,0,0,0,.87-.18h0a4.55,4.55,0,0,1,2.1-1.31.63.63,0,0,0,0-1.21,18.28,18.28,0,0,0-3.74-.63,1,1,0,0,1-.84-.31,2.07,2.07,0,0,0,.38-.28A3,3,0,0,0,29.72,25a22,22,0,0,1,4.93-.26,3.68,3.68,0,0,1,2.88,2.8C37.56,27.65,37.71,28.41,36.6,31.64Z" transform="translate(-0.47 -0.01)"/><circle class="cls-2" cx="26.04" cy="26.04" r="25.04"/></svg>